HIERARCHY
ROOT Hips
{
  OFFSET 90.7885 88.945 -76.2838
  CHANNELS 6 Xposition Yposition Zposition Zrotation Xrotation Yrotation
  JOINT LeftUpLeg
  {
    OFFSET 8.64259 1.95398 -2.38835
    CHANNELS 3 Zrotation Xrotation Yrotation
    JOINT LeftLeg
    {
      OFFSET 43.7702 0 0
      CHANNELS 3 Zrotation Xrotation Yrotation
      JOINT LeftFoot
      {
        OFFSET 40.6238 0 0
        CHANNELS 3 Zrotation Xrotation Yrotation
        JOINT LeftToeBase
        {
          OFFSET 12.7242 0 0
          CHANNELS 3 Zrotation Xrotation Yrotation
          End Site
          {
            OFFSET 0 0 0
          }
        }
      }
    }
  }
  JOINT RightUpLeg
  {
    OFFSET -8.2249 1.95398 -2.59336
    CHANNELS 3 Zrotation Xrotation Yrotation
    JOINT RightLeg
    {
      OFFSET 43.5653 0 0
      CHANNELS 3 Zrotation Xrotation Yrotation
      JOINT RightFoot
      {
        OFFSET 40.6238 0 0
        CHANNELS 3 Zrotation Xrotation Yrotation
        JOINT RightToeBase
        {
          OFFSET 12.7242 0 0
          CHANNELS 3 Zrotation Xrotation Yrotation
          End Site
          {
            OFFSET 0 0 0
          }
        }
      }
    }
  }
  JOINT Spine
  {
    OFFSET 0.165834 0.87714 6.61349
    CHANNELS 3 Zrotation Xrotation Yrotation
    JOINT Spine1
    {
      OFFSET 7.38963 1.71661e-005 0
      CHANNELS 3 Zrotation Xrotation Yrotation
      JOINT Spine2
      {
        OFFSET 11.9445 1.14441e-005 0
        CHANNELS 3 Zrotation Xrotation Yrotation
        JOINT Spine3
        {
          OFFSET 14.7254 4.19617e-005 0
          CHANNELS 3 Zrotation Xrotation Yrotation
          JOINT Spine4
          {
            OFFSET 10.9679 0 0
            CHANNELS 3 Zrotation Xrotation Yrotation
            JOINT RightShoulder
            {
              OFFSET 2.46616 -1.6653 3.69651
              CHANNELS 3 Zrotation Xrotation Yrotation
              JOINT RightArm
              {
                OFFSET 13.0012 0 0
                CHANNELS 3 Zrotation Xrotation Yrotation
                JOINT RightForeArm
                {
                  OFFSET 28.7848 1.52588e-005 0
                  CHANNELS 3 Zrotation Xrotation Yrotation
                  JOINT RightHand
                  {
                    OFFSET 26.5688 1.52588e-005 0
                    CHANNELS 3 Zrotation Xrotation Yrotation
                    End Site
                    {
                      OFFSET 0 0 0
                    }
                  }
                }
              }
            }
            JOINT LeftShoulder
            {
              OFFSET 2.38034 -1.29275 -3.7523
              CHANNELS 3 Zrotation Xrotation Yrotation
              JOINT LeftArm
              {
                OFFSET 16.3182 6.10352e-005 0
                CHANNELS 3 Zrotation Xrotation Yrotation
                JOINT LeftForeArm
                {
                  OFFSET 27.0901 0 0
                  CHANNELS 3 Zrotation Xrotation Yrotation
                  JOINT LeftHand
                  {
                    OFFSET 24.5451 1.52588e-005 0
                    CHANNELS 3 Zrotation Xrotation Yrotation
                    End Site
                    {
                      OFFSET 0 0 0
                    }
                  }
                }
              }
            }
            JOINT Neck
            {
              OFFSET 5.0226 -0.0266342 0
              CHANNELS 3 Zrotation Xrotation Yrotation
              JOINT Head
              {
                OFFSET 6.69363 2.86102e-005 0
                CHANNELS 3 Zrotation Xrotation Yrotation
                End Site
                {
                  OFFSET 0 0 0
                }
              }
            }
          }
        }
      }
    }
  }
}
MOTION
Frames:	15
Frame Time:	0.0416667
-280.616 92.0962 -240.323 -111.111 44.5664 -70.7609 -173.336 18.4889 95.9983 -48.0728 21.0508 1.0261 70.202 5.13103 1.93339 19.5284 6.04165 -5.9614 168.704 -4.22021 77.2868 -75.4403 -19.2977 -3.82862 70.0687 -5.58271 -1.31257 19.5414 -1.0494 3.86163 2.05212 7.58862 -90.7572 11.7308 3.72619 -1.90116 0.06354 3.6389 -2.06344 -22.5123 4.12504 -0.691819 -2.49961 4.12505 -0.69183 96.0232 -38.449 -93.1335 1.38195 10.1031 11.6611 -33.4942 -4.4736 -102.189 -34.1636 0.862985 -14.4453 -80.7476 -34.7776 91.6569 -45.5964 32.2975 52.6277 38.216 -29.3649 -101.209 -17.4559 2.58685 -24.3895 15.7018 -6.27315 -0.220513 -6.66242 -6.01424 -0.457647 
-277.26 94.1036 -236.955 -110.679 43.7377 -71.0447 -174.585 17.3069 95.5599 -38.3968 23.9107 0.991686 60.06 0.666437 3.108 22.0151 4.69624 -4.94593 169.69 -11.3654 80.5662 -66.5794 -22.0783 -4.54717 70.0053 -5.49662 -1.4448 21.5179 -1.41416 4.33096 2.51721 7.41449 -90.6558 12.0909 4.69444 -1.82364 0.426806 4.60964 -2.02882 -22.1757 5.02502 -0.325162 -2.16307 5.025 -0.325162 95.219 -33.4246 -95.5333 2.4962 6.17282 15.2448 -35.6011 -1.91841 -102.995 -32.8425 0.518914 -13.7673 -79.9537 -32.2438 92.9534 -44.1953 29.9231 55.1242 37.7477 -31.8297 -105.783 -16.2716 2.64768 -26.5569 11.9541 -9.02979 -1.66853 -5.36953 -8.37629 -0.910918 
-274.011 95.9475 -233.328 -110.224 43.4947 -72.2608 -175.667 14.2154 94.3719 -24.383 24.0801 0.183978 48.4715 -4.35045 1.43803 23.8654 4.37636 -4.9185 170.262 -16.4297 82.1563 -57.309 -23.4652 -5.25654 71.9043 -6.44185 -1.79988 21.2649 -1.61948 4.77169 2.77378 7.33934 -90.4326 12.2401 5.30813 -1.45686 0.578896 5.23887 -1.68964 -22.0437 5.49986 0.210612 -2.03109 5.49984 0.210611 94.7071 -30.2284 -97.2735 4.39837 -1.35399 16.0398 -38.0068 1.27983 -101.286 -31.0267 0.234581 -13.1535 -79.0741 -31.9634 94.6169 -37.5487 26.4639 53.1797 35.6465 -31.6116 -109.754 -13.8089 2.21648 -27.1269 10.0307 -10.3815 -2.33015 -6.56992 -9.54606 -2.24439 
-270.008 97.1479 -229.585 -106.514 42.8767 -75.5612 -176.284 16.3193 93.9916 -18.6531 23.0181 -0.707767 50.4145 -3.36851 -1.07533 14.2157 -0.6333 2.75171 170.384 -16.9859 84.2113 -48.4055 -19.9364 -4.15597 75.1081 -7.70612 0.351157 20.8606 -1.8538 5.27447 2.63788 6.98739 -90.1735 12.9348 5.15433 -0.972799 1.27354 5.10652 -1.19929 -21.3436 5.20773 0.625567 -1.33095 5.20775 0.62556 94.2496 -28.5238 -98.6308 8.30328 -9.66397 17.0687 -39.5415 3.57001 -98.1018 -30.8295 0.648004 -14.7296 -80.0655 -32.0651 92.7259 -33.941 19.7486 52.8222 34.8188 -30.8465 -112.929 -11.6363 1.70554 -26.2888 8.85482 -10.6019 -3.15959 -8.46711 -9.53888 -3.27026 
-265.619 97.4315 -225.408 -101.878 41.8997 -79.7361 -176.941 22.0688 93.1559 -23.2129 22.2424 -0.682639 55.1616 -1.58791 0.417303 12.6058 -1.6114 4.20795 169.662 -13.9794 85.545 -42.2401 -15.4677 -2.13852 75.0681 -7.95603 -1.23443 23.3182 -2.45097 6.27191 2.41535 6.76357 -89.9501 13.37 4.81647 -0.511404 1.70777 4.78927 -0.723385 -20.8976 4.74697 0.963158 -0.884918 4.74697 0.963159 94.4915 -28.9492 -98.0215 13.0188 -14.265 19.1784 -38.591 5.05926 -95.9963 -32.4341 1.37687 -16.5129 -81.0743 -36.8438 91.2349 -25.835 17.7466 46.792 32.7951 -28.6402 -114.255 -9.10909 1.04095 -23.4173 11.9029 -10.4194 -0.715864 -10.4744 -9.60236 -5.71502 
-260.922 96.5368 -221.093 -98.8696 40.4261 -82.5908 -176.707 26.9282 92.7492 -31.6519 22.7817 -0.321155 59.8585 0.324436 2.75241 17.4758 2.8718 -1.6132 170.063 -8.27504 87.3958 -42.5618 -9.21941 -0.855009 75.6328 -8.02686 -2.4396 19.6341 -1.65448 5.02102 2.12131 6.86944 -89.7976 13.1472 4.30779 -0.127187 1.48338 4.298 -0.317019 -21.1064 4.1465 1.17565 -1.09371 4.14648 1.17565 94.2297 -32.3719 -97.7055 17.8784 -15.498 21.8432 -36.4515 5.53105 -94.7976 -34.388 1.66283 -16.2508 -82.1854 -41.9813 89.7895 -18.5095 17.1716 35.8569 32.6708 -26.4267 -112.973 -5.3408 0.307726 -19.7254 18.9445 -10.0283 1.98976 -12.8333 -9.63056 -7.42931 
-256.189 95.241 -216.71 -98.4965 40.1673 -83.5112 -175.085 31.2059 93.2651 -46.026 24.0129 0.016558 67.6419 3.68568 2.25713 17.557 1.43875 0.0529134 170.723 -2.33113 87.2552 -44.486 -7.50825 -0.769713 75.7714 -8.06843 -4.35435 16.7523 -1.99444 5.95102 1.87192 7.21251 -89.7134 12.4537 3.85584 0.128773 0.788417 3.85775 -0.0413109 -21.7887 3.63863 1.28319 -1.7761 3.63864 1.28319 92.879 -37.2554 -99.0449 23.0886 -16.5541 25.2019 -34.339 6.14086 -91.4604 -36.6467 1.07238 -12.9408 -84.249 -47.101 87.0144 -12.4848 16.4295 23.8144 31.3575 -23.1297 -110.199 -4.59551 0.15246 -17.0086 26.4848 -8.87286 3.35964 -15.3512 -8.9404 -7.22761 
-251.529 93.6157 -212.216 -100.382 40.6961 -83.6557 -172.584 32.4137 93.8382 -59.7299 23.9375 0.576563 72.3727 5.62477 0.844921 21.2969 1.02649 -0.0900173 171.386 1.60052 86.7399 -48.4528 -8.96918 -1.8884 76.8358 -8.62504 -5.45544 27.1587 -2.30452 5.51752 1.37839 7.53654 -89.7019 11.8002 2.88137 0.288752 0.132422 2.8913 0.161542 -22.4252 2.66128 1.14197 -2.41251 2.6613 1.14196 91.6861 -39.141 -100.716 30.1775 -19.3379 28.5326 -34.6203 1.75603 -81.5713 -41.537 0.438345 -10.511 -86.1165 -51.5703 84.7896 -7.33127 14.6049 13.409 30.4039 -21.1094 -108.845 -4.50351 0.149997 -17.2096 29.7303 -5.72225 4.34507 -16.4483 -6.36381 -6.74113 
-247.055 91.6879 -207.827 -102.546 41.7523 -83.3924 -169.499 32.0421 95.3731 -72.205 23.0829 1.57273 73.1301 5.99307 0.524197 22.5049 1.47362 -0.880726 172.656 5.52127 85.4594 -52.6996 -10.2977 -3.48404 81.8054 -11.0389 -3.43382 31.8364 -1.69817 3.54562 0.924665 7.84845 -89.6424 11.1734 2.00666 0.515511 -0.496037 2.02738 0.426658 -23.0405 1.75892 1.09491 -3.0278 1.75892 1.09491 94.0931 -39.6398 -96.3583 36.402 -22.366 29.7249 -38.1498 -7.23338 -72.0397 -37.6493 0.249327 -12.1105 -88.5396 -52.7141 81.4175 -2.8395 12.0509 0.546608 30.438 -20.4128 -108.34 -2.45509 -0.0805359 -18.1499 30.8799 -3.07464 3.52099 -16.0079 -3.74642 -5.1847 
-242.647 89.6907 -203.562 -103.832 42.9096 -83.6822 -165.985 30.793 97.2337 -82.5623 25.3888 2.93157 68.8708 4.6621 6.29235 24.3989 1.38598 -1.24958 173.993 10.4334 84.2144 -57.1063 -10.2809 -4.38124 87.0122 -13.5205 -1.87063 27.4158 -1.12806 2.88473 0.256973 8.01597 -89.4503 10.8374 0.765619 1.02151 -0.833673 0.809841 0.986811 -23.3666 0.423264 1.20436 -3.35391 0.423257 1.20436 95.2495 -41.5884 -93.9868 38.9979 -23.7888 32.2366 -37.0648 -16.5976 -62.9978 -33.7194 -0.33783 -11.841 -87.5021 -51.5512 82.7357 -1.27661 7.21062 -13.8632 29.2939 -19.72 -110.116 -6.24539 0.382014 -18.3125 29.9532 -0.194335 1.70357 -14.1835 -0.370816 -4.62751 
-238.399 88.5267 -199.589 -102.018 43.426 -83.7534 -165.536 30.3456 101.501 -89.9112 24.9244 4.69733 65.4208 3.1464 8.83156 28.8802 2.29106 -3.45439 175.398 17.0913 86.3036 -59.733 -9.62318 -3.79142 87.7277 -14.1905 -2.81587 21.8397 -0.952388 3.3606 -0.438439 7.87771 -89.4588 11.1217 -0.621434 1.13704 -0.549709 -0.570788 1.16328 -23.0828 -0.934415 0.897739 -3.07019 -0.934413 0.897733 97.8299 -41.5746 -89.5382 41.1941 -22.8192 34.7062 -34.8262 -25.2747 -55.3934 -30.1434 -0.558832 -12.8445 -85.9776 -47.5841 84.4122 -3.65436 1.14391 -30.2579 31.8653 -18.9501 -109.34 -5.22092 0.24198 -17.4089 29.9228 1.59399 -3.42414 -13.4898 3.12651 -2.0991 
-235.094 88.8731 -196.006 -103.241 42.5295 -81.4292 -166.994 24.207 105.444 -91.9763 26.2832 6.73723 62.3123 1.75031 8.20297 28.4898 2.39115 -3.45723 175.896 19.3517 88.0404 -58.8863 -8.19224 -3.32788 83.3819 -11.994 -2.46287 20.5431 -1.11059 3.85357 -1.36825 8.00038 -89.5495 10.8866 -2.51585 1.1337 -0.78254 -2.4635 1.24335 -23.3367 -2.74018 0.324665 -3.32407 -2.74016 0.324663 99.6423 -39.9028 -86.5085 43.0796 -22.6631 39.3808 -31.5135 -25.913 -52.1352 -29.8137 -0.141408 -14.3704 -85.8382 -41.9969 83.7198 -11.8551 -4.90082 -42.028 35.8993 -17.8701 -108.645 -3.79662 0.06132 -16.4693 28.7635 4.13824 -7.37612 -12.0339 6.82703 0.232034 
-232.254 90.0403 -192.234 -106.919 41.8459 -78.297 -168.311 12.8263 106.922 -88.5884 28.1145 8.38315 63.9949 2.61541 3.70339 27.4224 2.18068 -2.87673 176.918 18.5117 88.721 -55.6068 -8.77171 -3.92706 77.203 -9.1109 -3.36464 19.7839 -1.38885 4.48503 -2.28556 8.35834 -89.6183 10.1837 -4.37993 1.12906 -1.48051 -4.32599 1.32106 -24.0751 -4.51637 -0.242175 -4.06246 -4.51637 -0.242173 101.568 -34.7854 -83.1841 45.797 -23.0865 42.9611 -31.9754 -24.5911 -53.0548 -28.1954 0.337738 -17.1065 -86.5775 -35.0098 81.0695 -18.9914 -10.0411 -48.7302 35.7721 -15.2116 -108.446 -2.56488 -0.0663614 -18.6855 27.3565 7.49316 -8.47082 -10.5678 10.2506 1.5724 
-229.341 92.2067 -187.636 -107.544 43.2933 -77.6726 -169.856 4.36335 103.57 -81.6748 31.1702 8.9483 63.5144 2.28477 2.83476 28.9843 2.76494 -4.1003 178.666 19.1645 88.8589 -48.7111 -11.5809 -5.42954 67.1622 -4.01921 -3.41749 20.5477 -1.05137 3.72626 -3.08843 8.22376 -89.6312 10.4723 -5.983 1.26014 -1.18567 -5.9217 1.5231 -23.8319 -6.08414 -0.603055 -3.81923 -6.08415 -0.603055 102.889 -30.8177 -80.5843 45.8758 -24.2804 46.1763 -32.7119 -21.8699 -54.8466 -25.7718 0.645262 -19.4337 -86.6043 -27.0463 79.075 -23.3221 -12.8143 -52.0982 36.9398 -14.5121 -108.188 -4.15658 0.109847 -17.1078 25.5222 10.7664 -10.2849 -12.0314 13.6444 4.51225 
-226.374 94.9368 -182.844 -107.255 45.8812 -76.0674 -171.787 -1.91197 100.093 -72.8767 31.9262 9.00692 63.8699 2.35269 2.4949 28.868 2.55554 -3.76233 179.026 17.9793 89.993 -35.9082 -17.3693 -6.39378 55.2337 1.75504 0.273375 17.7693 0.422496 1.44764 -3.3524 8.25738 -90.1754 10.3815 -6.75889 0.243745 -1.27182 -6.74159 0.542354 -23.9422 -6.5182 -1.80774 -3.92959 -6.51819 -1.80775 104.9 -25.5955 -76.0358 43.0229 -22.4007 45.9854 -33.8415 -19.5262 -57.7293 -25.3241 0.867954 -20.6581 -85.8188 -21.51 79.0138 -23.6376 -12.9689 -58.4856 38.0561 -11.3971 -102.938 -2.28603 -0.0966606 -15.9487 27.8478 14.002 -7.15986 -15.4956 15.6033 4.64399 
